<svg id="visual" viewBox="0 0 1800 1300" width="1800" height="1300" xmlns="http://www.w3.org/2000/svg" xmlns:xlink="http://www.w3.org/1999/xlink" version="1.1"><g stroke-width="1" stroke-linejoin="bevel"><path d="M965 562.1L966 384.4L838 373.4Z" fill="#00101c" stroke="#00101c"></path><path d="M838 373.4L770 534.1L965 562.1Z" fill="#205a7a" stroke="#205a7a"></path><path d="M965 562.1L1161 536.1L966 384.4Z" fill="#297ea6" stroke="#297ea6"></path><path d="M581 331.4L591 540.1L770 534.1Z" fill="#277297" stroke="#277297"></path><path d="M767 781.9L1014 775.9L965 562.1Z" fill="#246688" stroke="#246688"></path><path d="M767 781.9L965 562.1L770 534.1Z" fill="#00101c" stroke="#00101c"></path><path d="M965 562.1L1014 775.9L1161 536.1Z" fill="#19435d" stroke="#19435d"></path><path d="M1232 410.4L1021 170.7L966 384.4Z" fill="#112e42" stroke="#112e42"></path><path d="M966 384.4L1021 170.7L838 373.4Z" fill="#1d4e6b" stroke="#1d4e6b"></path><path d="M838 373.4L581 331.4L770 534.1Z" fill="#277297" stroke="#277297"></path><path d="M1021 170.7L771 162.7L838 373.4Z" fill="#19435d" stroke="#19435d"></path><path d="M592 766.9L767 781.9L770 534.1Z" fill="#297ea6" stroke="#297ea6"></path><path d="M771 162.7L581 331.4L838 373.4Z" fill="#19435d" stroke="#19435d"></path><path d="M1161 536.1L1232 410.4L966 384.4Z" fill="#19435d" stroke="#19435d"></path><path d="M1014 775.9L1204 732.9L1161 536.1Z" fill="#19435d" stroke="#19435d"></path><path d="M1161 536.1L1370 522.1L1232 410.4Z" fill="#19435d" stroke="#19435d"></path><path d="M771 162.7L586 196.7L581 331.4Z" fill="#1d4e6b" stroke="#1d4e6b"></path><path d="M591 540.1L592 766.9L770 534.1Z" fill="#297ea6" stroke="#297ea6"></path><path d="M422 596.1L592 766.9L591 540.1Z" fill="#246688" stroke="#246688"></path><path d="M1232 410.4L1232 198.7L1021 170.7Z" fill="#246688" stroke="#246688"></path><path d="M1021 170.7L831 0L771 162.7Z" fill="#297ea6" stroke="#297ea6"></path><path d="M771 162.7L625 0L586 196.7Z" fill="#246688" stroke="#246688"></path><path d="M972 0L831 0L1021 170.7Z" fill="#15384f" stroke="#15384f"></path><path d="M1204 732.9L1370 522.1L1161 536.1Z" fill="#1d4e6b" stroke="#1d4e6b"></path><path d="M1232 410.4L1394 331.4L1232 198.7Z" fill="#277297" stroke="#277297"></path><path d="M1189 0L972 0L1021 170.7Z" fill="#205a7a" stroke="#205a7a"></path><path d="M822 967.6L1014 941.6L1014 775.9Z" fill="#0c2435" stroke="#0c2435"></path><path d="M1014 775.9L1208 898.6L1204 732.9Z" fill="#205a7a" stroke="#205a7a"></path><path d="M822 967.6L1014 775.9L767 781.9Z" fill="#0c2435" stroke="#0c2435"></path><path d="M400 391.4L591 540.1L581 331.4Z" fill="#00101c" stroke="#00101c"></path><path d="M400 391.4L422 596.1L591 540.1Z" fill="#277297" stroke="#277297"></path><path d="M583 912.6L822 967.6L767 781.9Z" fill="#081a28" stroke="#081a28"></path><path d="M425 186.7L400 391.4L581 331.4Z" fill="#15384f" stroke="#15384f"></path><path d="M1370 522.1L1394 331.4L1232 410.4Z" fill="#00101c" stroke="#00101c"></path><path d="M1014 941.6L1208 898.6L1014 775.9Z" fill="#1d4e6b" stroke="#1d4e6b"></path><path d="M1204 732.9L1366 773.9L1370 522.1Z" fill="#246688" stroke="#246688"></path><path d="M419 729.9L583 912.6L592 766.9Z" fill="#19435d" stroke="#19435d"></path><path d="M592 766.9L583 912.6L767 781.9Z" fill="#1d4e6b" stroke="#1d4e6b"></path><path d="M193 748.9L419 729.9L422 596.1Z" fill="#1d4e6b" stroke="#1d4e6b"></path><path d="M422 596.1L419 729.9L592 766.9Z" fill="#277297" stroke="#277297"></path><path d="M831 0L625 0L771 162.7Z" fill="#1d4e6b" stroke="#1d4e6b"></path><path d="M586 196.7L425 186.7L581 331.4Z" fill="#205a7a" stroke="#205a7a"></path><path d="M426 0L425 186.7L586 196.7Z" fill="#277297" stroke="#277297"></path><path d="M1395 166.7L1189 0L1232 198.7Z" fill="#19435d" stroke="#19435d"></path><path d="M1232 198.7L1189 0L1021 170.7Z" fill="#277297" stroke="#277297"></path><path d="M1208 898.6L1366 773.9L1204 732.9Z" fill="#081a28" stroke="#081a28"></path><path d="M1370 522.1L1571 410.4L1394 331.4Z" fill="#277297" stroke="#277297"></path><path d="M1394 331.4L1395 166.7L1232 198.7Z" fill="#205a7a" stroke="#205a7a"></path><path d="M1181 1120.3L1373 899.6L1208 898.6Z" fill="#297ea6" stroke="#297ea6"></path><path d="M1208 898.6L1373 899.6L1366 773.9Z" fill="#297ea6" stroke="#297ea6"></path><path d="M1565 593.1L1571 410.4L1370 522.1Z" fill="#15384f" stroke="#15384f"></path><path d="M1181 1120.3L1208 898.6L1014 941.6Z" fill="#0c2435" stroke="#0c2435"></path><path d="M635 1127.3L830 1129.3L822 967.6Z" fill="#15384f" stroke="#15384f"></path><path d="M822 967.6L1012 1125.3L1014 941.6Z" fill="#15384f" stroke="#15384f"></path><path d="M830 1129.3L1012 1125.3L822 967.6Z" fill="#1d4e6b" stroke="#1d4e6b"></path><path d="M625 0L426 0L586 196.7Z" fill="#112e42" stroke="#112e42"></path><path d="M425 186.7L210 370.4L400 391.4Z" fill="#15384f" stroke="#15384f"></path><path d="M419 729.9L392 924.6L583 912.6Z" fill="#0c2435" stroke="#0c2435"></path><path d="M583 912.6L635 1127.3L822 967.6Z" fill="#112e42" stroke="#112e42"></path><path d="M193 748.9L392 924.6L419 729.9Z" fill="#081a28" stroke="#081a28"></path><path d="M1565 593.1L1370 522.1L1366 773.9Z" fill="#246688" stroke="#246688"></path><path d="M1394 331.4L1629 206.7L1395 166.7Z" fill="#277297" stroke="#277297"></path><path d="M1568 764.9L1565 593.1L1366 773.9Z" fill="#00101c" stroke="#00101c"></path><path d="M198 159.7L210 370.4L425 186.7Z" fill="#19435d" stroke="#19435d"></path><path d="M400 391.4L174 565.1L422 596.1Z" fill="#297ea6" stroke="#297ea6"></path><path d="M439 1106.3L635 1127.3L583 912.6Z" fill="#112e42" stroke="#112e42"></path><path d="M1583 0L1419 0L1395 166.7Z" fill="#112e42" stroke="#112e42"></path><path d="M1395 166.7L1419 0L1189 0Z" fill="#246688" stroke="#246688"></path><path d="M1012 1125.3L1181 1120.3L1014 941.6Z" fill="#00101c" stroke="#00101c"></path><path d="M210 370.4L174 565.1L400 391.4Z" fill="#112e42" stroke="#112e42"></path><path d="M1592 891.6L1568 764.9L1373 899.6Z" fill="#081a28" stroke="#081a28"></path><path d="M1373 899.6L1568 764.9L1366 773.9Z" fill="#081a28" stroke="#081a28"></path><path d="M1800 344.4L1629 206.7L1571 410.4Z" fill="#0c2435" stroke="#0c2435"></path><path d="M174 565.1L193 748.9L422 596.1Z" fill="#0c2435" stroke="#0c2435"></path><path d="M227 0L198 159.7L425 186.7Z" fill="#081a28" stroke="#081a28"></path><path d="M210 370.4L0 521.1L174 565.1Z" fill="#15384f" stroke="#15384f"></path><path d="M194 1122.3L439 1106.3L392 924.6Z" fill="#277297" stroke="#277297"></path><path d="M392 924.6L439 1106.3L583 912.6Z" fill="#246688" stroke="#246688"></path><path d="M1571 410.4L1629 206.7L1394 331.4Z" fill="#15384f" stroke="#15384f"></path><path d="M1800 534.1L1571 410.4L1565 593.1Z" fill="#246688" stroke="#246688"></path><path d="M1436 1127.3L1592 891.6L1373 899.6Z" fill="#1d4e6b" stroke="#1d4e6b"></path><path d="M1800 737.9L1800 534.1L1565 593.1Z" fill="#00101c" stroke="#00101c"></path><path d="M426 0L227 0L425 186.7Z" fill="#246688" stroke="#246688"></path><path d="M1012 1125.3L1173 1300L1181 1120.3Z" fill="#112e42" stroke="#112e42"></path><path d="M1181 1120.3L1436 1127.3L1373 899.6Z" fill="#205a7a" stroke="#205a7a"></path><path d="M830 1129.3L977 1300L1012 1125.3Z" fill="#081a28" stroke="#081a28"></path><path d="M808 1300L977 1300L830 1129.3Z" fill="#19435d" stroke="#19435d"></path><path d="M808 1300L830 1129.3L635 1127.3Z" fill="#205a7a" stroke="#205a7a"></path><path d="M622 1300L808 1300L635 1127.3Z" fill="#112e42" stroke="#112e42"></path><path d="M1629 206.7L1583 0L1395 166.7Z" fill="#0c2435" stroke="#0c2435"></path><path d="M0 726.9L172 897.6L193 748.9Z" fill="#0c2435" stroke="#0c2435"></path><path d="M193 748.9L172 897.6L392 924.6Z" fill="#19435d" stroke="#19435d"></path><path d="M1381 1300L1436 1127.3L1181 1120.3Z" fill="#246688" stroke="#246688"></path><path d="M414 1300L622 1300L439 1106.3Z" fill="#15384f" stroke="#15384f"></path><path d="M439 1106.3L622 1300L635 1127.3Z" fill="#112e42" stroke="#112e42"></path><path d="M977 1300L1173 1300L1012 1125.3Z" fill="#0c2435" stroke="#0c2435"></path><path d="M174 565.1L0 726.9L193 748.9Z" fill="#081a28" stroke="#081a28"></path><path d="M0 347.4L0 521.1L210 370.4Z" fill="#277297" stroke="#277297"></path><path d="M0 347.4L210 370.4L198 159.7Z" fill="#19435d" stroke="#19435d"></path><path d="M0 183.7L0 347.4L198 159.7Z" fill="#1d4e6b" stroke="#1d4e6b"></path><path d="M1800 737.9L1565 593.1L1568 764.9Z" fill="#0c2435" stroke="#0c2435"></path><path d="M1629 206.7L1800 0L1583 0Z" fill="#19435d" stroke="#19435d"></path><path d="M1800 534.1L1800 344.4L1571 410.4Z" fill="#246688" stroke="#246688"></path><path d="M0 521.1L0 726.9L174 565.1Z" fill="#112e42" stroke="#112e42"></path><path d="M0 0L0 183.7L198 159.7Z" fill="#0c2435" stroke="#0c2435"></path><path d="M1800 895.6L1800 737.9L1592 891.6Z" fill="#277297" stroke="#277297"></path><path d="M1592 891.6L1800 737.9L1568 764.9Z" fill="#297ea6" stroke="#297ea6"></path><path d="M1800 344.4L1800 206.7L1629 206.7Z" fill="#19435d" stroke="#19435d"></path><path d="M172 897.6L194 1122.3L392 924.6Z" fill="#15384f" stroke="#15384f"></path><path d="M0 1087.3L194 1122.3L172 897.6Z" fill="#00101c" stroke="#00101c"></path><path d="M194 1122.3L414 1300L439 1106.3Z" fill="#1d4e6b" stroke="#1d4e6b"></path><path d="M1173 1300L1381 1300L1181 1120.3Z" fill="#1d4e6b" stroke="#1d4e6b"></path><path d="M1436 1127.3L1623 1137.3L1592 891.6Z" fill="#15384f" stroke="#15384f"></path><path d="M1606 1300L1623 1137.3L1436 1127.3Z" fill="#205a7a" stroke="#205a7a"></path><path d="M0 726.9L0 918.6L172 897.6Z" fill="#19435d" stroke="#19435d"></path><path d="M1800 1104.3L1800 895.6L1592 891.6Z" fill="#00101c" stroke="#00101c"></path><path d="M227 0L0 0L198 159.7Z" fill="#15384f" stroke="#15384f"></path><path d="M1800 206.7L1800 0L1629 206.7Z" fill="#081a28" stroke="#081a28"></path><path d="M0 1300L212 1300L194 1122.3Z" fill="#297ea6" stroke="#297ea6"></path><path d="M194 1122.3L212 1300L414 1300Z" fill="#246688" stroke="#246688"></path><path d="M0 918.6L0 1087.3L172 897.6Z" fill="#081a28" stroke="#081a28"></path><path d="M1381 1300L1606 1300L1436 1127.3Z" fill="#081a28" stroke="#081a28"></path><path d="M1623 1137.3L1800 1104.3L1592 891.6Z" fill="#297ea6" stroke="#297ea6"></path><path d="M1800 1300L1800 1104.3L1623 1137.3Z" fill="#0c2435" stroke="#0c2435"></path><path d="M0 1087.3L0 1300L194 1122.3Z" fill="#205a7a" stroke="#205a7a"></path><path d="M1606 1300L1800 1300L1623 1137.3Z" fill="#15384f" stroke="#15384f"></path></g></svg>